<!-- <svg xmlns="http://www.w3.org/2000/svg" viewBox="0 0 111 32"> -->
<svg xmlns="http://www.w3.org/2000/svg" viewBox="0 0 900 600">
    <g fill="#61DAFB">
        <title>Logo Stuart</title>
        <path d="M26.353 7.649c-0.205 0-0.411 0.051-0.633 0.171l-11.927 7.29-10.781-6.434 10.798-6.451 0.359 0.205c0.034 0.017 0.068 0.034 0.103 0.051l4.261 2.464c0.428 0.222 0.753 0.24 1.078 0.051l0.702-0.411c0.171-0.103 0.274-0.24 0.291-0.411 0.017-0.137-0.051-0.274-0.188-0.394-0.034-0.034-0.068-0.051-0.103-0.086l-4.004-2.31-1.917-1.112c-0.274-0.154-0.702-0.188-1.010-0.068-0.068 0.034-0.137 0.051-0.188 0.086l-6.314 3.799-5.852 3.508c-0.428 0.274-0.667 0.633-0.667 1.027-0.017 0.359 0.188 0.702 0.565 0.975l12.287 7.392c0.325 0.188 0.873 0.188 1.198 0l11.123-6.742v12.697l-11.739 7.016-11.739-7.016v-0.445c0-0.034-0.017-0.086-0.017-0.12v-3.884c0-0.394-0.188-0.719-0.496-0.89-0.034-0.034-0.068-0.051-0.103-0.086l-0.582-0.342c-0.051-0.034-0.086-0.051-0.137-0.068-0.291-0.103-0.548 0.051-0.599 0.342v6.024c0.051 0.359 0.308 0.736 0.582 0.924l12.458 7.427c0.154 0.103 0.376 0.154 0.599 0.154s0.445-0.051 0.599-0.154l12.458-7.461c0.342-0.205 0.599-0.667 0.599-1.078v-14.58c-0.017-0.496-0.411-1.061-1.061-1.061z"></path>
        <path d="M12.338 24.385l-2.721-1.574c-0.291-0.171-0.565 0.017-0.565 0.342v1.078c0 0.291 0.188 0.616 0.428 0.753l2.738 1.591c0.068 0.051 0.154 0.068 0.222 0.068 0.103 0 0.188-0.051 0.257-0.12 0.051-0.068 0.086-0.171 0.086-0.291v-1.095c-0.017-0.291-0.205-0.616-0.445-0.753z"></path>
        <path d="M12.766 21.134c0-0.291-0.188-0.616-0.428-0.753l-4.347-2.481c-0.291-0.171-0.565 0.017-0.565 0.342v1.078c0 0.291 0.188 0.616 0.428 0.753l4.347 2.481c0.068 0.051 0.154 0.068 0.222 0.068 0.103 0 0.188-0.051 0.257-0.12 0.051-0.068 0.086-0.171 0.086-0.291v-1.078z"></path>
        <path d="M54.383 3.97h-3.183v15.812c0 2.207 1.369 4.347 4.364 4.347h2.55v-2.704h-1.985c-1.147 0-1.745-0.667-1.745-1.797v-8.488h3.405v-2.824h-3.405v-4.347zM110.34 11.14v-2.824h-3.405v-4.347h-3.183v15.812c0 2.207 1.369 4.347 4.364 4.347h2.55v-2.704h-1.985c-1.147 0-1.745-0.667-1.745-1.797v-8.488h3.405zM43.534 14.785l-2.259-0.222c-1.66-0.154-2.208-0.753-2.208-1.728 0-1.249 0.89-2.071 2.995-2.071 1.369 0 2.806 0.342 3.885 1.164l1.985-1.985c-1.403-1.283-3.611-1.831-5.715-1.831-3.73 0-6.246 1.694-6.246 4.911 0 2.704 1.814 4.021 4.723 4.278l2.584 0.222c1.369 0.12 2.139 0.684 2.139 1.831 0 1.574-1.506 2.207-3.576 2.207-1.523 0-3.251-0.342-4.501-1.643l-2.173 2.036c1.745 1.797 4.090 2.293 6.417 2.293 4.312 0 6.982-1.694 6.982-5.099 0.017-2.721-1.745-4.039-5.031-4.364zM82.498 8.128c-2.738 0-4.398 0.684-5.835 2.327l2.105 1.951c0.993-1.129 1.985-1.54 3.662-1.54 2.481 0 3.32 0.873 3.32 2.96v0.787h-4.175c-4.021 0-6.024 2.105-6.024 4.74 0 3.149 2.55 4.911 5.356 4.911 2.259 0 3.662-0.53 4.877-1.831v1.609h3.149v-10.473c0.017-3.679-2.053-5.442-6.434-5.442zM95.675 8.317h-3.149v15.726h3.183v-7.632c0-3.422 2.396-5.373 5.202-5.373v-2.892c-1.985 0-3.885 0.787-5.236 2.036v-1.865zM69.972 18.635c0 1.472-1.301 2.584-3.029 2.584s-3.063-1.095-3.063-2.584v-10.319h-3.149v10.182c0 3.303 2.652 5.75 6.212 5.75 3.576 0 6.246-2.447 6.246-5.75v-10.182h-3.217v10.319zM85.75 17.78c0 2.396-2.139 3.645-4.056 3.645-1.591 0-3.063-0.53-3.063-2.105 0-1.42 1.147-2.207 3.44-2.207h3.662v0.667h0.017z"></path>
    </g>
</svg>